/* XPM */
static char * C:\Users\crime\Shared\macos\metacity_1\close_focused_normal_xpm[] = {
"20 18 98 2",
"  	c None",
". 	c #454544",
"+ 	c #454545",
"@ 	c #454445",
"# 	c #444544",
"$ 	c #444444",
"% 	c #454444",
"& 	c #444445",
"* 	c #444344",
"= 	c #444343",
"- 	c #434444",
"; 	c #434443",
"> 	c #444443",
", 	c #5C4141",
"' 	c #A2383D",
") 	c #C9353E",
"! 	c #DA3741",
"~ 	c #D93741",
"{ 	c #C8353F",
"] 	c #A2373D",
"^ 	c #5A4243",
"/ 	c #434343",
"( 	c #434344",
"_ 	c #883C3F",
": 	c #D93740",
"< 	c #EE4A51",
"[ 	c #F25056",
"} 	c #EE4951",
"| 	c #D73540",
"1 	c #853C3F",
"2 	c #434242",
"3 	c #424242",
"4 	c #424342",
"5 	c #424243",
"6 	c #893B3F",
"7 	c #E33B45",
"8 	c #E13B45",
"9 	c #843C3F",
"0 	c #5E4041",
"a 	c #D93640",
"b 	c #D83640",
"c 	c #584041",
"d 	c #414141",
"e 	c #414241",
"f 	c #424141",
"g 	c #414142",
"h 	c #A2373B",
"i 	c #9F363C",
"j 	c #414041",
"k 	c #C6343D",
"l 	c #414140",
"m 	c #404040",
"n 	c #404041",
"o 	c #DB3742",
"p 	c #414040",
"q 	c #3F3F3F",
"r 	c #3F403F",
"s 	c #3F4040",
"t 	c #3E3F3F",
"u 	c #3F3F40",
"v 	c #C9343D",
"w 	c #403F3F",
"x 	c #3E3E3E",
"y 	c #3F3F3E",
"z 	c #A2343A",
"A 	c #9F353A",
"B 	c #3F3E3F",
"C 	c #3E3D3D",
"D 	c #573C3D",
"E 	c #D83641",
"F 	c #553D3E",
"G 	c #3C3D3D",
"H 	c #3D3D3E",
"I 	c #3D3E3D",
"J 	c #3D3E3E",
"K 	c #87373B",
"L 	c #83383C",
"M 	c #3D3D3D",
"N 	c #3C3C3C",
"O 	c #86373A",
"P 	c #83383B",
"Q 	c #3C3B3B",
"R 	c #3C3C3D",
"S 	c #3D3D3C",
"T 	c #573A3C",
"U 	c #A1333A",
"V 	c #C8343C",
"W 	c #DA3641",
"X 	c #D93641",
"Y 	c #C8333D",
"Z 	c #A03339",
"` 	c #563B3D",
" .	c #3B3B3A",
"..	c #3A3A3A",
"+.	c #3B3B3B",
"@.	c #3C3B3C",
"#.	c #3B3C3B",
"$.	c #39393A",
". + @ . . . + @ . + @ . + @ . + @ . . + ",
"# $ % % & # $ % # $ % # $ % # $ % % & $ ",
"* = - ; > * , ' ) ! ~ { ] ^ * = - ; > = ",
"/ / ( / ( _ : < [ [ [ [ } | 1 / ( / ( 2 ",
"3 4 4 5 6 7 [ [ [ [ [ [ [ [ 8 9 4 5 5 3 ",
"3 3 3 0 a [ [ [ [ [ [ [ [ [ [ b c 3 3 d ",
"e f g h < [ [ [ [ [ [ [ [ [ [ } i e f j ",
"d d d ) [ [ [ [ [ [ [ [ [ [ [ [ k d l m ",
"n n m o [ [ [ [ [ [ [ [ [ [ [ [ ~ p p q ",
"m r s o [ [ [ [ [ [ [ [ [ [ [ [ ~ m q t ",
"u q q v [ [ [ [ [ [ [ [ [ [ [ [ k w w x ",
"y q q z < [ [ [ [ [ [ [ [ [ [ } A B y C ",
"x x x D E [ [ [ [ [ [ [ [ [ [ | F x x G ",
"H H I J K 7 [ [ [ [ [ [ [ [ 8 L I J M N ",
"M M M M M O a < [ [ [ [ } | P M M M M Q ",
"G R R R S G T U V W X Y Z ` G R R R S  .",
"N Q N N N N Q N N Q N N Q N N Q N N N ..",
"+.@.#.@.+.+.@.#.+.@.#.+.@.#.+.@.#.@.+.$."};
