/* XPM */
static char * close_pressed_xpm[] = {
"20 18 55 1",
" 	c None",
".	c #343236",
"+	c #5E4142",
"@	c #A2373D",
"#	c #C22E38",
"$	c #CF2836",
"%	c #CF2A37",
"&	c #C22F39",
"*	c #A0373D",
"=	c #5A4243",
"-	c #883C3F",
";	c #CF2A36",
">	c #D62735",
",	c #CE2A36",
"'	c #863D3F",
")	c #873B40",
"!	c #D42835",
"~	c #D32835",
"{	c #853D3F",
"]	c #5E4041",
"^	c #CE2836",
"/	c #CE2533",
"(	c #C82432",
"_	c #C72432",
":	c #CF2634",
"<	c #594041",
"[	c #A2373C",
"}	c #A11D2B",
"|	c #C42432",
"1	c #C32331",
"2	c #A0363D",
"3	c #C32D38",
"4	c #C12F37",
"5	c #D12936",
"6	c #CE2936",
"7	c #C32D37",
"8	c #C12E38",
"9	c #A2343A",
"0	c #C92432",
"a	c #9F353A",
"b	c #5A3C3D",
"c	c #CF2936",
"d	c #CE2634",
"e	c #48383A",
"f	c #87373B",
"g	c #D42735",
"h	c #83383C",
"i	c #85383B",
"j	c #51393C",
"k	c #A1333A",
"l	c #C32C37",
"m	c #D02936",
"n	c #C22D37",
"o	c #A03239",
"p	c #4D383B",
"....................",
"....................",
"......+@#$%&*=......",
".....-;>>>>>>,'.....",
"....)!>>>>>>>>~{....",
"...]^>/(>>>>_:>,<...",
"...[>>_}|>>1}(>>2...",
"...3>>>1}|1}|>>>4...",
"...5>>>>1}}|>>>>6...",
"...5>>>>1}}|>>>>6...",
"...7>>>1}|1}|>>>8...",
"...9>>_}|>>1}0>>a...",
"...bc>d(>>>>(:>6e...",
"....fg>>>>>>>>~h....",
".....fc>>>>>>ci.....",
"......jklmcnop......",
"....................",
"...................."};
