/* XPM */
static char * close_prelight_xpm[] = {
"20 18 56 1",
" 	c None",
".	c #343236",
"+	c #624141",
"@	c #A5373D",
"#	c #CD353F",
"$	c #DD3742",
"%	c #CC353F",
"&	c #5F4243",
"*	c #8E3B3F",
"=	c #DC3841",
"-	c #EF4B52",
";	c #F25056",
">	c #DA3741",
",	c #8C3B3F",
"'	c #8E3A3F",
")	c #E53D47",
"!	c #E43C47",
"~	c #8B3B3E",
"{	c #614040",
"]	c #E64950",
"^	c #DC424B",
"/	c #DB424A",
"(	c #E74950",
"_	c #DB3641",
":	c #5D4041",
"<	c #A5363B",
"[	c #A21F2C",
"}	c #D63F48",
"|	c #D53E47",
"1	c #DD434B",
"2	c #EE4A52",
"3	c #A3363C",
"4	c #D84048",
"5	c #CA353E",
"6	c #DE3742",
"7	c #DC3741",
"8	c #DB3741",
"9	c #CC353E",
"0	c #C9343D",
"a	c #A5343B",
"b	c #EE4A51",
"c	c #A1353B",
"d	c #5C3C3D",
"e	c #DA3641",
"f	c #D93640",
"g	c #5A3C3D",
"h	c #8A373A",
"i	c #E33B46",
"j	c #87373B",
"k	c #8A373B",
"l	c #DA3541",
"m	c #593B3C",
"n	c #A33239",
"o	c #C9333C",
"p	c #A1333A",
"q	c #51393B",
"....................",
"....................",
"......+@#$$%@&......",
".....*=-;;;;->,.....",
"....');;;;;;;;!~....",
"...{=;]^;;;;/(;_:...",
"...<-;^[};;|[1;23...",
"...#;;;}[}|[4;;;5...",
"...6;;;;}[[4;;;;7...",
"...$;;;;|[[};;;;8...",
"...9;;;|[4}[};;;0...",
"...a-;/[4;;}[1;bc...",
"...de;(1;;;;1(;fg...",
"....h!;;;;;;;;ij....",
".....kl2;;;;bfj.....",
"......mno770pq......",
"....................",
"...................."};
