/* XPM */
static char * close_active_xpm[] = {
"20 18 47 1",
" 	c None",
".	c #343236",
"+	c #5C4141",
"@	c #A2383D",
"#	c #C9353E",
"$	c #DA3741",
"%	c #D93741",
"&	c #C8353F",
"*	c #A2373D",
"=	c #5A4243",
"-	c #883C3F",
";	c #D93740",
">	c #EE4A51",
",	c #F25056",
"'	c #EE4951",
")	c #D73540",
"!	c #853C3F",
"~	c #893B3F",
"{	c #E33B45",
"]	c #E13B45",
"^	c #843C3F",
"/	c #5E4041",
"(	c #D93640",
"_	c #D83640",
":	c #584041",
"<	c #A2373B",
"[	c #9F363C",
"}	c #C6343D",
"|	c #DB3742",
"1	c #C9343D",
"2	c #A2343A",
"3	c #9F353A",
"4	c #573C3D",
"5	c #D83641",
"6	c #553D3E",
"7	c #87373B",
"8	c #83383C",
"9	c #86373A",
"0	c #83383B",
"a	c #573A3C",
"b	c #A1333A",
"c	c #C8343C",
"d	c #DA3641",
"e	c #D93641",
"f	c #C8333D",
"g	c #A03339",
"h	c #563B3D",
"....................",
"....................",
"......+@#$%&*=......",
".....-;>,,,,')!.....",
"....~{,,,,,,,,]^....",
".../(,,,,,,,,,,_:...",
"...<>,,,,,,,,,,'[...",
"...#,,,,,,,,,,,,}...",
"...|,,,,,,,,,,,,%...",
"...|,,,,,,,,,,,,%...",
"...1,,,,,,,,,,,,}...",
"...2>,,,,,,,,,,'3...",
"...45,,,,,,,,,,)6...",
"....7{,,,,,,,,]8....",
".....9(>,,,,')0.....",
"......abcdefgh......",
"....................",
"...................."};
