/* XPM */
static char * C:\Users\crime\Shared\macos\metacity_1\close_focused_active_xpm[] = {
"20 18 107 2",
"  	c None",
". 	c #454544",
"+ 	c #454545",
"@ 	c #454445",
"# 	c #444544",
"$ 	c #444444",
"% 	c #454444",
"& 	c #444445",
"* 	c #444344",
"= 	c #444343",
"- 	c #434444",
"; 	c #434443",
"> 	c #444443",
", 	c #624141",
"' 	c #A5373D",
") 	c #CD353F",
"! 	c #DD3742",
"~ 	c #CC353F",
"{ 	c #5F4243",
"] 	c #434343",
"^ 	c #434344",
"/ 	c #8E3B3F",
"( 	c #DC3841",
"_ 	c #EF4B52",
": 	c #F25056",
"< 	c #DA3741",
"[ 	c #8C3B3F",
"} 	c #434242",
"| 	c #424242",
"1 	c #424342",
"2 	c #424243",
"3 	c #8E3A3F",
"4 	c #E53D47",
"5 	c #E43C47",
"6 	c #8B3B3E",
"7 	c #614040",
"8 	c #E64950",
"9 	c #DC424B",
"0 	c #DB424A",
"a 	c #E74950",
"b 	c #DB3641",
"c 	c #5D4041",
"d 	c #414141",
"e 	c #414241",
"f 	c #424141",
"g 	c #414142",
"h 	c #A5363B",
"i 	c #A21F2C",
"j 	c #D63F48",
"k 	c #D53E47",
"l 	c #DD434B",
"m 	c #EE4A52",
"n 	c #A3363C",
"o 	c #414041",
"p 	c #D84048",
"q 	c #CA353E",
"r 	c #414140",
"s 	c #404040",
"t 	c #404041",
"u 	c #DE3742",
"v 	c #DC3741",
"w 	c #414040",
"x 	c #3F3F3F",
"y 	c #3F403F",
"z 	c #3F4040",
"A 	c #DB3741",
"B 	c #3E3F3F",
"C 	c #3F3F40",
"D 	c #CC353E",
"E 	c #C9343D",
"F 	c #403F3F",
"G 	c #3E3E3E",
"H 	c #3F3F3E",
"I 	c #A5343B",
"J 	c #EE4A51",
"K 	c #A1353B",
"L 	c #3F3E3F",
"M 	c #3E3D3D",
"N 	c #5C3C3D",
"O 	c #DA3641",
"P 	c #D93640",
"Q 	c #5A3C3D",
"R 	c #3C3D3D",
"S 	c #3D3D3E",
"T 	c #3D3E3D",
"U 	c #3D3E3E",
"V 	c #8A373A",
"W 	c #E33B46",
"X 	c #87373B",
"Y 	c #3D3D3D",
"Z 	c #3C3C3C",
"` 	c #8A373B",
" .	c #DA3541",
"..	c #3C3B3B",
"+.	c #3C3C3D",
"@.	c #3D3D3C",
"#.	c #593B3C",
"$.	c #A33239",
"%.	c #C9333C",
"&.	c #A1333A",
"*.	c #573A3C",
"=.	c #3B3B3A",
"-.	c #3A3A3A",
";.	c #3B3B3B",
">.	c #3C3B3C",
",.	c #3B3C3B",
"'.	c #39393A",
". + @ . . . + @ . + @ . + @ . + @ . . + ",
"# $ % % & # $ % # $ % # $ % # $ % % & $ ",
"* = - ; > * , ' ) ! ! ~ ' { * = - ; > = ",
"] ] ^ ] ^ / ( _ : : : : _ < [ ] ^ ] ^ } ",
"| 1 1 2 3 4 : : : : : : : : 5 6 1 2 2 | ",
"| | | 7 ( : 8 9 : : : : 0 a : b c | | d ",
"e f g h _ : 9 i j : : k i l : m n e f o ",
"d d d ) : : : j i j k i p : : : q d r s ",
"t t s u : : : : j i i p : : : : v w w x ",
"s y z ! : : : : k i i j : : : : A s x B ",
"C x x D : : : k i p j i j : : : E F F G ",
"H x x I _ : 0 i p : : j i l : J K L H M ",
"G G G N O : a l : : : : l a : P Q G G R ",
"S S T U V 5 : : : : : : : : W X T U Y Z ",
"Y Y Y Y Y `  .m : : : : J P X Y Y Y Y ..",
"R +.+.+.@.R #.$.%.v v E &.*.R +.+.+.@.=.",
"Z ..Z Z Z Z ..Z Z ..Z Z ..Z Z ..Z Z Z -.",
";.>.,.>.;.;.>.,.;.>.,.;.>.,.;.>.,.>.;.'."};
