/* XPM */
static char * C:\Users\crime\Shared\macos\metacity_1\close_focused_pressed_xpm[] = {
"20 18 106 2",
"  	c None",
". 	c #454544",
"+ 	c #454545",
"@ 	c #454445",
"# 	c #444544",
"$ 	c #444444",
"% 	c #454444",
"& 	c #444445",
"* 	c #444344",
"= 	c #444343",
"- 	c #434444",
"; 	c #434443",
"> 	c #444443",
", 	c #5E4142",
"' 	c #A2373D",
") 	c #C22E38",
"! 	c #CF2836",
"~ 	c #CF2A37",
"{ 	c #C22F39",
"] 	c #A0373D",
"^ 	c #5A4243",
"/ 	c #434343",
"( 	c #434344",
"_ 	c #883C3F",
": 	c #CF2A36",
"< 	c #D62735",
"[ 	c #CE2A36",
"} 	c #863D3F",
"| 	c #434242",
"1 	c #424242",
"2 	c #424342",
"3 	c #424243",
"4 	c #873B40",
"5 	c #D42835",
"6 	c #D32835",
"7 	c #853D3F",
"8 	c #5E4041",
"9 	c #CE2836",
"0 	c #CE2533",
"a 	c #C82432",
"b 	c #C72432",
"c 	c #CF2634",
"d 	c #594041",
"e 	c #414141",
"f 	c #414241",
"g 	c #424141",
"h 	c #414142",
"i 	c #A2373C",
"j 	c #A11D2B",
"k 	c #C42432",
"l 	c #C32331",
"m 	c #A0363D",
"n 	c #414041",
"o 	c #C32D38",
"p 	c #C12F37",
"q 	c #414140",
"r 	c #404040",
"s 	c #404041",
"t 	c #D12936",
"u 	c #CE2936",
"v 	c #414040",
"w 	c #3F3F3F",
"x 	c #3F403F",
"y 	c #3F4040",
"z 	c #3E3F3F",
"A 	c #3F3F40",
"B 	c #C32D37",
"C 	c #C12E38",
"D 	c #403F3F",
"E 	c #3E3E3E",
"F 	c #3F3F3E",
"G 	c #A2343A",
"H 	c #C92432",
"I 	c #9F353A",
"J 	c #3F3E3F",
"K 	c #3E3D3D",
"L 	c #5A3C3D",
"M 	c #CF2936",
"N 	c #CE2634",
"O 	c #553D3E",
"P 	c #3C3D3D",
"Q 	c #3D3D3E",
"R 	c #3D3E3D",
"S 	c #3D3E3E",
"T 	c #87373B",
"U 	c #D42735",
"V 	c #83383C",
"W 	c #3D3D3D",
"X 	c #3C3C3C",
"Y 	c #85383B",
"Z 	c #3C3B3B",
"` 	c #3C3C3D",
" .	c #3D3D3C",
"..	c #573A3D",
"+.	c #A1333A",
"@.	c #C32C37",
"#.	c #D02936",
"$.	c #C22D37",
"%.	c #A03239",
"&.	c #563B3D",
"*.	c #3B3B3A",
"=.	c #3A3A3A",
"-.	c #3B3B3B",
";.	c #3C3B3C",
">.	c #3B3C3B",
",.	c #39393A",
". + @ . . . + @ . + @ . + @ . + @ . . + ",
"# $ % % & # $ % # $ % # $ % # $ % % & $ ",
"* = - ; > * , ' ) ! ~ { ] ^ * = - ; > = ",
"/ / ( / ( _ : < < < < < < [ } / ( / ( | ",
"1 2 2 3 4 5 < < < < < < < < 6 7 2 3 3 1 ",
"1 1 1 8 9 < 0 a < < < < b c < [ d 1 1 e ",
"f g h i < < b j k < < l j a < < m f g n ",
"e e e o < < < l j k l j k < < < p e q r ",
"s s r t < < < < l j j k < < < < u v v w ",
"r x y t < < < < l j j k < < < < u r w z ",
"A w w B < < < l j k l j k < < < C D D E ",
"F w w G < < b j k < < l j H < < I J F K ",
"E E E L M < N a < < < < a c < u O E E P ",
"Q Q R S T U < < < < < < < < 6 V R S W X ",
"W W W W W T M < < < < < < M Y W W W W Z ",
"P ` ` `  .P ..+.@.#.M $.%.&.P ` ` `  .*.",
"X Z X X X X Z X X Z X X Z X X Z X X X =.",
"-.;.>.;.-.-.;.>.-.;.>.-.;.>.-.;.>.;.-.,."};
