/* XPM */
static char * hide_pressed_xpm[] = {
"20 18 40 1",
" 	c None",
".	c #343236",
"+	c #645742",
"@	c #BB953E",
"#	c #E3B439",
"$	c #F3BF37",
"%	c #F4C037",
"&	c #BC963D",
"*	c #645843",
"=	c #9B7E3F",
"-	c #F4BF37",
";	c #FAC636",
">	c #F2BF37",
",	c #9A7D3F",
"'	c #F8C436",
")	c #9A7D3E",
"!	c #665741",
"~	c #F3C037",
"{	c #645841",
"]	c #BB963C",
"^	c #BB963D",
"/	c #E3B438",
"(	c #E3B338",
"_	c #DDA62C",
":	c #C18722",
"<	c #DEA62C",
"[	c #DDA52C",
"}	c #BB953B",
"|	c #BA943B",
"1	c #62523D",
"2	c #61543D",
"3	c #9B7D3B",
"4	c #997C3B",
"5	c #F3C036",
"6	c #997C3A",
"7	c #63563D",
"8	c #BC953A",
"9	c #F4C036",
"0	c #BB953A",
"a	c #5E513C",
"....................",
"....................",
"......+@#$%#&*......",
".....=-;;;;;;>,.....",
"....,';;;;;;;;')....",
"...!~;;;;;;;;;;${...",
"...];;;;;;;;;;;;^...",
".../;;;;;;;;;;;;(...",
"...%;_::::::::<;%...",
"...%;[::::::::_;%...",
".../;;;;;;;;;;;;(...",
"...};;;;;;;;;;;;|...",
"...1>;;;;;;;;;;>2...",
"....3';;;;;;;;'4....",
".....35;;;;;;>6.....",
"......78/99/0a......",
"....................",
"...................."};
