/* XPM */
static char * hide_prelight_xpm[] = {
"20 18 50 1",
" 	c None",
".	c #343236",
"+	c #635340",
"@	c #A97F31",
"#	c #D19C24",
"$	c #E3AB21",
"%	c #AA7D30",
"&	c #605241",
"*	c #916E37",
"=	c #E1AA21",
"-	c #F6C031",
";	c #FAC536",
">	c #E1A921",
",	c #916D37",
"'	c #8F6E37",
")	c #EBB324",
"!	c #8F6D36",
"~	c #5F503F",
"{	c #E1A821",
"]	c #5E513F",
"^	c #A97E2F",
"/	c #A77C30",
"(	c #D19B25",
"_	c #E3AB20",
":	c #DBA32B",
"<	c #C08522",
"[	c #DCA42B",
"}	c #E3AA20",
"|	c #DCA52C",
"1	c #C28723",
"2	c #DDA52C",
"3	c #E2A920",
"4	c #D09B24",
"5	c #A87D2E",
"6	c #A67C2E",
"7	c #5D4D3B",
"8	c #E0A721",
"9	c #5A4D3B",
"0	c #8B6933",
"a	c #EAB123",
"b	c #8B6B34",
"c	c #8D6A33",
"d	c #E0A821",
"e	c #DEA720",
"f	c #5A4C3A",
"g	c #A67A2C",
"h	c #D09A23",
"i	c #E1A920",
"j	c #CE9A23",
"k	c #A47A2C",
"....................",
"....................",
"......+@#$$#%&......",
".....*=-;;;;->,.....",
"....');;;;;;;;)!....",
"...~>;;;;;;;;;;{]...",
"...^-;;;;;;;;;;-/...",
"...#;;;;;;;;;;;;(...",
"..._;:<<<<<<<<[;}...",
"...};|111111112;3...",
"...4;;;;;;;;;;;;4...",
"...5-;;;;;;;;;;-6...",
"...78;;;;;;;;;;89...",
"....0a;;;;;;;;ab....",
".....cd-;;;;-e0.....",
"......fghiijkf......",
"....................",
"...................."};
