/* XPM */
static char * C:\Users\crime\Shared\macos\metacity_1\minimize_focused_normal_xpm[] = {
"20 18 96 2",
"  	c None",
". 	c #454544",
"+ 	c #454545",
"@ 	c #454445",
"# 	c #444544",
"$ 	c #444444",
"% 	c #454444",
"& 	c #444445",
"* 	c #444344",
"= 	c #444343",
"- 	c #434444",
"; 	c #434443",
"> 	c #444443",
", 	c #5E5040",
"' 	c #A57C32",
") 	c #CD9926",
"! 	c #DFA922",
"~ 	c #DFA822",
"{ 	c #CE9A26",
"] 	c #A67B31",
"^ 	c #5D5042",
"/ 	c #434343",
"( 	c #434344",
"_ 	c #8A6939",
": 	c #DEA621",
"< 	c #F6C030",
"[ 	c #FAC636",
"} 	c #DDA621",
"| 	c #8A6A39",
"1 	c #434242",
"2 	c #424242",
"3 	c #424342",
"4 	c #424243",
"5 	c #E8B024",
"6 	c #FAC536",
"7 	c #896A38",
"8 	c #5D4F3F",
"9 	c #DFA621",
"0 	c #414141",
"a 	c #414241",
"b 	c #424141",
"c 	c #414142",
"d 	c #A67C30",
"e 	c #A47B31",
"f 	c #414041",
"g 	c #CE9925",
"h 	c #CD9925",
"i 	c #414140",
"j 	c #404040",
"k 	c #404041",
"l 	c #E0A821",
"m 	c #414040",
"n 	c #3F3F3F",
"o 	c #3F403F",
"p 	c #3F4040",
"q 	c #3E3F3F",
"r 	c #3F3F40",
"s 	c #CE9924",
"t 	c #CC9924",
"u 	c #403F3F",
"v 	c #3E3E3E",
"w 	c #3F3F3E",
"x 	c #A57B2E",
"y 	c #A47A2F",
"z 	c #3F3E3F",
"A 	c #3E3D3D",
"B 	c #594A3C",
"C 	c #DEA620",
"D 	c #DDA620",
"E 	c #574B3C",
"F 	c #3C3D3D",
"G 	c #3D3D3E",
"H 	c #3D3E3D",
"I 	c #3D3E3E",
"J 	c #896934",
"K 	c #886835",
"L 	c #3D3D3D",
"M 	c #3C3C3C",
"N 	c #896734",
"O 	c #886834",
"P 	c #3C3B3B",
"Q 	c #3C3C3D",
"R 	c #3D3D3C",
"S 	c #594B3B",
"T 	c #A37A2D",
"U 	c #CD9924",
"V 	c #DFA921",
"W 	c #DFA821",
"X 	c #A4792D",
"Y 	c #594A3B",
"Z 	c #3B3B3A",
"` 	c #3A3A3A",
" .	c #3B3B3B",
"..	c #3C3B3C",
"+.	c #3B3C3B",
"@.	c #39393A",
". + @ . . . + @ . + @ . + @ . + @ . . + ",
"# $ % % & # $ % # $ % # $ % # $ % % & $ ",
"* = - ; > * , ' ) ! ~ { ] ^ * = - ; > = ",
"/ / ( / ( _ : < [ [ [ [ < } | / ( / ( 1 ",
"2 3 3 4 | 5 6 [ [ [ [ [ [ 6 5 7 3 4 4 2 ",
"2 2 2 8 9 6 [ [ [ [ [ [ [ [ 6 : 8 2 2 0 ",
"a b c d < [ [ [ [ [ [ [ [ [ [ < e a b f ",
"0 0 0 g [ [ [ [ [ [ [ [ [ [ [ [ h 0 i j ",
"k k j l [ [ [ [ [ [ [ [ [ [ [ [ l m m n ",
"j o p l [ [ [ [ [ [ [ [ [ [ [ [ l j n q ",
"r n n s [ [ [ [ [ [ [ [ [ [ [ [ t u u v ",
"w n n x < [ [ [ [ [ [ [ [ [ [ < y z w A ",
"v v v B C 6 [ [ [ [ [ [ [ [ 6 D E v v F ",
"G G H I J 5 6 [ [ [ [ [ [ 6 5 K H I L M ",
"L L L L L N C < [ [ [ [ < D O L L L L P ",
"F Q Q Q R F S T U V W U X Y F Q Q Q R Z ",
"M P M M M M P M M P M M P M M P M M M ` ",
" ...+... . ...+. ...+. ...+. ...+... .@."};
