/* XPM */
static char * C:\Users\crime\Shared\macos\metacity_1\minimize_focused_pressed_xpm[] = {
"20 18 91 1",
" 	c None",
".	c #454544",
"+	c #454545",
"@	c #454445",
"#	c #444544",
"$	c #444444",
"%	c #454444",
"&	c #444445",
"*	c #444344",
"=	c #444343",
"-	c #434444",
";	c #434443",
">	c #444443",
",	c #645742",
"'	c #BB953E",
")	c #E3B439",
"!	c #F3BF37",
"~	c #F4C037",
"{	c #BC963D",
"]	c #645843",
"^	c #434343",
"/	c #434344",
"(	c #9B7E3F",
"_	c #F4BF37",
":	c #FAC636",
"<	c #F2BF37",
"[	c #9A7D3F",
"}	c #434242",
"|	c #424242",
"1	c #424342",
"2	c #424243",
"3	c #F8C436",
"4	c #9A7D3E",
"5	c #665741",
"6	c #F3C037",
"7	c #645841",
"8	c #414141",
"9	c #414241",
"0	c #424141",
"a	c #414142",
"b	c #BB963C",
"c	c #BB963D",
"d	c #414041",
"e	c #E3B438",
"f	c #E3B338",
"g	c #414140",
"h	c #404040",
"i	c #404041",
"j	c #DDA62C",
"k	c #C18722",
"l	c #DEA62C",
"m	c #414040",
"n	c #3F3F3F",
"o	c #3F403F",
"p	c #3F4040",
"q	c #DDA52C",
"r	c #3E3F3F",
"s	c #3F3F40",
"t	c #403F3F",
"u	c #3E3E3E",
"v	c #3F3F3E",
"w	c #BB953B",
"x	c #BA943B",
"y	c #3F3E3F",
"z	c #3E3D3D",
"A	c #62523D",
"B	c #61543D",
"C	c #3C3D3D",
"D	c #3D3D3E",
"E	c #3D3E3D",
"F	c #3D3E3E",
"G	c #9B7D3B",
"H	c #997C3B",
"I	c #3D3D3D",
"J	c #3C3C3C",
"K	c #F3C036",
"L	c #997C3A",
"M	c #3C3B3B",
"N	c #3C3C3D",
"O	c #3D3D3C",
"P	c #63563D",
"Q	c #BC953A",
"R	c #F4C036",
"S	c #BB953A",
"T	c #5E513C",
"U	c #3B3B3A",
"V	c #3A3A3A",
"W	c #3B3B3B",
"X	c #3C3B3C",
"Y	c #3B3C3B",
"Z	c #39393A",
".+@...+@.+@.+@.+@..+",
"#$%%&#$%#$%#$%#$%%&$",
"*=-;>*,')!~){]*=-;>=",
"^^/^/(_::::::<[^/^/}",
"|112[3::::::::34122|",
"|||56::::::::::!7||8",
"90ab::::::::::::c90d",
"888e::::::::::::f8gh",
"iih~:jkkkkkkkkl:~mmn",
"hop~:qkkkkkkkkj:~hnr",
"snne::::::::::::fttu",
"vnnw::::::::::::xyvz",
"uuuA<::::::::::<BuuC",
"DDEFG3::::::::3HEFIJ",
"IIIIIGK::::::<LIIIIM",
"CNNNOCPQeRReSTCNNNOU",
"JMJJJJMJJMJJMJJMJJJV",
"WXYXWWXYWXYWXYWXYXWZ"};
