/* XPM */
static char * C:\Users\crime\Shared\macos\metacity_1\minimize_focused_active_xpm[] = {
"20 18 101 2",
"  	c None",
". 	c #454544",
"+ 	c #454545",
"@ 	c #454445",
"# 	c #444544",
"$ 	c #444444",
"% 	c #454444",
"& 	c #444445",
"* 	c #444344",
"= 	c #444343",
"- 	c #434444",
"; 	c #434443",
"> 	c #444443",
", 	c #635340",
"' 	c #A97F31",
") 	c #D19C24",
"! 	c #E3AB21",
"~ 	c #AA7D30",
"{ 	c #605241",
"] 	c #434343",
"^ 	c #434344",
"/ 	c #916E37",
"( 	c #E1AA21",
"_ 	c #F6C031",
": 	c #FAC536",
"< 	c #E1A921",
"[ 	c #916D37",
"} 	c #434242",
"| 	c #424242",
"1 	c #424342",
"2 	c #424243",
"3 	c #8F6E37",
"4 	c #EBB324",
"5 	c #8F6D36",
"6 	c #5F503F",
"7 	c #E1A821",
"8 	c #5E513F",
"9 	c #414141",
"0 	c #414241",
"a 	c #424141",
"b 	c #414142",
"c 	c #A97E2F",
"d 	c #A77C30",
"e 	c #414041",
"f 	c #D19B25",
"g 	c #414140",
"h 	c #404040",
"i 	c #404041",
"j 	c #E3AB20",
"k 	c #DBA32B",
"l 	c #C08522",
"m 	c #DCA42B",
"n 	c #E3AA20",
"o 	c #414040",
"p 	c #3F3F3F",
"q 	c #3F403F",
"r 	c #3F4040",
"s 	c #DCA52C",
"t 	c #C28723",
"u 	c #DDA52C",
"v 	c #E2A920",
"w 	c #3E3F3F",
"x 	c #3F3F40",
"y 	c #D09B24",
"z 	c #403F3F",
"A 	c #3E3E3E",
"B 	c #3F3F3E",
"C 	c #A87D2E",
"D 	c #A67C2E",
"E 	c #3F3E3F",
"F 	c #3E3D3D",
"G 	c #5D4D3B",
"H 	c #E0A721",
"I 	c #5A4D3B",
"J 	c #3C3D3D",
"K 	c #3D3D3E",
"L 	c #3D3E3D",
"M 	c #3D3E3E",
"N 	c #8B6933",
"O 	c #EAB123",
"P 	c #8B6B34",
"Q 	c #3D3D3D",
"R 	c #3C3C3C",
"S 	c #8D6A33",
"T 	c #E0A821",
"U 	c #DEA720",
"V 	c #3C3B3B",
"W 	c #3C3C3D",
"X 	c #3D3D3C",
"Y 	c #5A4C3A",
"Z 	c #A67A2C",
"` 	c #D09A23",
" .	c #E1A920",
"..	c #CE9A23",
"+.	c #A47A2C",
"@.	c #3B3B3A",
"#.	c #3A3A3A",
"$.	c #3B3B3B",
"%.	c #3C3B3C",
"&.	c #3B3C3B",
"*.	c #39393A",
". + @ . . . + @ . + @ . + @ . + @ . . + ",
"# $ % % & # $ % # $ % # $ % # $ % % & $ ",
"* = - ; > * , ' ) ! ! ) ~ { * = - ; > = ",
"] ] ^ ] ^ / ( _ : : : : _ < [ ] ^ ] ^ } ",
"| 1 1 2 3 4 : : : : : : : : 4 5 1 2 2 | ",
"| | | 6 < : : : : : : : : : : 7 8 | | 9 ",
"0 a b c _ : : : : : : : : : : _ d 0 a e ",
"9 9 9 ) : : : : : : : : : : : : f 9 g h ",
"i i h j : k l l l l l l l l m : n o o p ",
"h q r n : s t t t t t t t t u : v h p w ",
"x p p y : : : : : : : : : : : : y z z A ",
"B p p C _ : : : : : : : : : : _ D E B F ",
"A A A G H : : : : : : : : : : H I A A J ",
"K K L M N O : : : : : : : : O P L M Q R ",
"Q Q Q Q Q S T _ : : : : _ U N Q Q Q Q V ",
"J W W W X J Y Z `  . ...+.Y J W W W X @.",
"R V R R R R V R R V R R V R R V R R R #.",
"$.%.&.%.$.$.%.&.$.%.&.$.%.&.$.%.&.%.$.*."};
