/* XPM */
static char * hide_active_xpm[] = {
"20 18 45 1",
" 	c None",
".	c #343236",
"+	c #5E5040",
"@	c #A57C32",
"#	c #CD9926",
"$	c #DFA922",
"%	c #DFA822",
"&	c #CE9A26",
"*	c #A67B31",
"=	c #5D5042",
"-	c #8A6939",
";	c #DEA621",
">	c #F6C030",
",	c #FAC636",
"'	c #DDA621",
")	c #8A6A39",
"!	c #E8B024",
"~	c #FAC536",
"{	c #896A38",
"]	c #5D4F3F",
"^	c #DFA621",
"/	c #A67C30",
"(	c #A47B31",
"_	c #CE9925",
":	c #CD9925",
"<	c #E0A821",
"[	c #CE9924",
"}	c #CC9924",
"|	c #A57B2E",
"1	c #A47A2F",
"2	c #594A3C",
"3	c #DEA620",
"4	c #DDA620",
"5	c #574B3C",
"6	c #896934",
"7	c #886835",
"8	c #896734",
"9	c #886834",
"0	c #594B3B",
"a	c #A37A2D",
"b	c #CD9924",
"c	c #DFA921",
"d	c #DFA821",
"e	c #A4792D",
"f	c #594A3B",
"....................",
"....................",
"......+@#$%&*=......",
".....-;>,,,,>').....",
"....)!~,,,,,,~!{....",
"...]^~,,,,,,,,~;]...",
".../>,,,,,,,,,,>(...",
"..._,,,,,,,,,,,,:...",
"...<,,,,,,,,,,,,<...",
"...<,,,,,,,,,,,,<...",
"...[,,,,,,,,,,,,}...",
"...|>,,,,,,,,,,>1...",
"...23~,,,,,,,,~45...",
"....6!~,,,,,,~!7....",
".....83>,,,,>49.....",
"......0abcdbef......",
"....................",
"...................."};
