/* XPM */
static char * maximize_prelight_xpm[] = {
"20 18 45 1",
" 	c None",
".	c #343236",
"+	c #425641",
"@	c #329335",
"#	c #28B82F",
"$	c #24CB30",
"%	c #339334",
"&	c #405642",
"*	c #397A3B",
"=	c #23C92E",
"-	c #33E442",
";	c #39EA49",
">	c #397D3A",
",	c #27D333",
"'	c #22B32C",
")	c #27D434",
"!	c #387C39",
"~	c #405540",
"{	c #066D07",
"]	c #23CA2F",
"^	c #405840",
"/	c #319234",
"(	c #33E543",
"_	c #309533",
":	c #27B62F",
"<	c #27BA2E",
"[	c #24CB2F",
"}	c #23CB30",
"|	c #23CB2F",
"1	c #27B62E",
"2	c #26BA2E",
"3	c #2F9132",
"4	c #2F9431",
"5	c #3C503C",
"6	c #23C72D",
"7	c #3C543C",
"8	c #347836",
"9	c #26D434",
"0	c #347A36",
"a	c #22C92D",
"b	c #347B35",
"c	c #394C3A",
"d	c #2D9231",
"e	c #25B82D",
"f	c #2D9230",
"....................",
"....................",
"......+@#$$#%&......",
".....*=-;;;;-=>.....",
"....*,;;;'';;;)!....",
"...~=;;;;{{;;;;]^...",
".../-;;;;{{;;;;(_...",
"...:;;;;;{{;;;;;<...",
"...[;'{{{{{{{{';}...",
"...|;'{{{{{{{{';}...",
"...1;;;;;{{;;;;;2...",
"...3-;;;;{{;;;;(4...",
"...56;;;;{{;;;;=7...",
"....8,;;;'';;;90....",
".....8a-;;;;-ab.....",
"......cde||efc......",
"....................",
"...................."};
