/* XPM */
static char * C:\Users\crime\Shared\macos\metacity_1\maximize_focused_active_xpm[] = {
"20 18 96 2",
"  	c None",
". 	c #454544",
"+ 	c #454545",
"@ 	c #454445",
"# 	c #444544",
"$ 	c #444444",
"% 	c #454444",
"& 	c #444445",
"* 	c #444344",
"= 	c #444343",
"- 	c #434444",
"; 	c #434443",
"> 	c #444443",
", 	c #425641",
"' 	c #329335",
") 	c #28B82F",
"! 	c #24CB30",
"~ 	c #339334",
"{ 	c #405642",
"] 	c #434343",
"^ 	c #434344",
"/ 	c #397A3B",
"( 	c #23C92E",
"_ 	c #33E442",
": 	c #39EA49",
"< 	c #397D3A",
"[ 	c #434242",
"} 	c #424242",
"| 	c #424342",
"1 	c #424243",
"2 	c #27D333",
"3 	c #22B32C",
"4 	c #27D434",
"5 	c #387C39",
"6 	c #405540",
"7 	c #066D07",
"8 	c #23CA2F",
"9 	c #405840",
"0 	c #414141",
"a 	c #414241",
"b 	c #424141",
"c 	c #414142",
"d 	c #319234",
"e 	c #33E543",
"f 	c #309533",
"g 	c #414041",
"h 	c #27B62F",
"i 	c #27BA2E",
"j 	c #414140",
"k 	c #404040",
"l 	c #404041",
"m 	c #24CB2F",
"n 	c #23CB30",
"o 	c #414040",
"p 	c #3F3F3F",
"q 	c #3F403F",
"r 	c #3F4040",
"s 	c #23CB2F",
"t 	c #3E3F3F",
"u 	c #3F3F40",
"v 	c #27B62E",
"w 	c #26BA2E",
"x 	c #403F3F",
"y 	c #3E3E3E",
"z 	c #3F3F3E",
"A 	c #2F9132",
"B 	c #2F9431",
"C 	c #3F3E3F",
"D 	c #3E3D3D",
"E 	c #3C523C",
"F 	c #23C72D",
"G 	c #3C543C",
"H 	c #3C3D3D",
"I 	c #3D3D3E",
"J 	c #3D3E3D",
"K 	c #3D3E3E",
"L 	c #347836",
"M 	c #26D434",
"N 	c #347A36",
"O 	c #3D3D3D",
"P 	c #3C3C3C",
"Q 	c #22C92D",
"R 	c #347B35",
"S 	c #3C3B3B",
"T 	c #3C3C3D",
"U 	c #3D3D3C",
"V 	c #3A513B",
"W 	c #2D9231",
"X 	c #25B82D",
"Y 	c #2D9230",
"Z 	c #3B3B3A",
"` 	c #3A3A3A",
" .	c #3B3B3B",
"..	c #3C3B3C",
"+.	c #3B3C3B",
"@.	c #39393A",
". + @ . . . + @ . + @ . + @ . + @ . . + ",
"# $ % % & # $ % # $ % # $ % # $ % % & $ ",
"* = - ; > * , ' ) ! ! ) ~ { * = - ; > = ",
"] ] ^ ] ^ / ( _ : : : : _ ( < ] ^ ] ^ [ ",
"} | | 1 / 2 : : : 3 3 : : : 4 5 | 1 1 } ",
"} } } 6 ( : : : : 7 7 : : : : 8 9 } } 0 ",
"a b c d _ : : : : 7 7 : : : : e f a b g ",
"0 0 0 h : : : : : 7 7 : : : : : i 0 j k ",
"l l k m : 3 7 7 7 7 7 7 7 7 3 : n o o p ",
"k q r s : 3 7 7 7 7 7 7 7 7 3 : n k p t ",
"u p p v : : : : : 7 7 : : : : : w x x y ",
"z p p A _ : : : : 7 7 : : : : e B C z D ",
"y y y E F : : : : 7 7 : : : : ( G y y H ",
"I I J K L 2 : : : 3 3 : : : M N J K O P ",
"O O O O O L Q _ : : : : _ Q R O O O O S ",
"H T T T U H V W X s s X Y V H T T T U Z ",
"P S P P P P S P P S P P S P P S P P P ` ",
" ...+... . ...+. ...+. ...+. ...+... .@."};
