/* XPM */
static char * C:\Users\crime\Shared\macos\metacity_1\maximize_focused_pressed_xpm[] = {
"20 18 104 2",
"  	c None",
". 	c #454544",
"+ 	c #454545",
"@ 	c #454445",
"# 	c #444544",
"$ 	c #444444",
"% 	c #454444",
"& 	c #444445",
"* 	c #444344",
"= 	c #444343",
"- 	c #434444",
"; 	c #434443",
"> 	c #444443",
", 	c #415641",
"' 	c #329235",
") 	c #24B029",
"! 	c #19BC22",
"~ 	c #23B029",
"{ 	c #329334",
"] 	c #405642",
"^ 	c #434343",
"/ 	c #434344",
"( 	c #3A7B3B",
"_ 	c #1ABB22",
": 	c #13C21E",
"< 	c #19BB22",
"[ 	c #397D3A",
"} 	c #434242",
"| 	c #424242",
"1 	c #424342",
"2 	c #424243",
"3 	c #397B3B",
"4 	c #15BF1F",
"5 	c #0E9D14",
"6 	c #15C01F",
"7 	c #387D39",
"8 	c #405640",
"9 	c #12C11D",
"0 	c #12C11E",
"a 	c #066D07",
"b 	c #13C11D",
"c 	c #12C21D",
"d 	c #19BC21",
"e 	c #405840",
"f 	c #414141",
"g 	c #414241",
"h 	c #424141",
"i 	c #414142",
"j 	c #319234",
"k 	c #13C11E",
"l 	c #13C21D",
"m 	c #309433",
"n 	c #414041",
"o 	c #23AF28",
"p 	c #22B128",
"q 	c #414140",
"r 	c #404040",
"s 	c #404041",
"t 	c #18BE21",
"u 	c #414040",
"v 	c #3F3F3F",
"w 	c #3F403F",
"x 	c #3F4040",
"y 	c #3E3F3F",
"z 	c #3F3F40",
"A 	c #22AF28",
"B 	c #12C21E",
"C 	c #21B127",
"D 	c #403F3F",
"E 	c #3E3E3E",
"F 	c #3F3F3E",
"G 	c #2F9132",
"H 	c #2F9331",
"I 	c #3F3E3F",
"J 	c #3E3D3D",
"K 	c #3C523C",
"L 	c #3C543C",
"M 	c #3C3D3D",
"N 	c #3D3D3E",
"O 	c #3D3E3D",
"P 	c #3D3E3E",
"Q 	c #347A36",
"R 	c #0D9D14",
"S 	c #14C01F",
"T 	c #347C36",
"U 	c #3D3D3D",
"V 	c #3C3C3C",
"W 	c #18BB21",
"X 	c #347A35",
"Y 	c #3C3B3B",
"Z 	c #3C3C3D",
"` 	c #3D3D3C",
" .	c #3A533B",
"..	c #2D9130",
"+.	c #20B027",
"@.	c #18BC21",
"#.	c #17BB21",
"$.	c #2D9330",
"%.	c #3B3B3A",
"&.	c #3A3A3A",
"*.	c #3B3B3B",
"=.	c #3C3B3C",
"-.	c #3B3C3B",
";.	c #39393A",
". + @ . . . + @ . + @ . + @ . + @ . . + ",
"# $ % % & # $ % # $ % # $ % # $ % % & $ ",
"* = - ; > * , ' ) ! ! ~ { ] * = - ; > = ",
"^ ^ / ^ / ( _ : : : : : : < [ ^ / ^ / } ",
"| 1 1 2 3 4 : : : 5 5 : : : 6 7 1 2 2 | ",
"| | | 8 _ : 9 0 9 a a b c c : d e | | f ",
"g h i j : : b b k a a c l : : : m g h n ",
"f f f o : : c 9 k a a : : : : : p f q r ",
"s s r < : 5 a a a a a a a a 5 : t u u v ",
"r w x < : 5 a a a a a a a a 5 : t r v y ",
"z v v A : : 0 9 c a a c : B : : C D D E ",
"F v v G : : c 0 b a a l 0 : : : H I F J ",
"E E E K _ : c k B a a : : : : d L E E M ",
"N N O P Q 6 : : : R R : : : S T O P U V ",
"U U U U U Q W : : : : : : W X U U U U Y ",
"M Z Z Z ` M  ...+.@.#.+.$. .M Z Z Z ` %.",
"V Y V V V V Y V V Y V V Y V V Y V V V &.",
"*.=.-.=.*.*.=.-.*.=.-.*.=.-.*.=.-.=.*.;."};
