/* XPM */
static char * maximize_active_xpm[] = {
"20 18 36 1",
" 	c None",
".	c #343236",
"+	c #329335",
"@	c #28B82F",
"#	c #24CB30",
"$	c #339334",
"%	c #397A3B",
"&	c #23C92E",
"*	c #33E442",
"=	c #39EA49",
"-	c #397D3A",
";	c #27D333",
">	c #27D434",
",	c #387C39",
"'	c #23CA2F",
")	c #319234",
"!	c #33E543",
"~	c #309533",
"{	c #27B62F",
"]	c #27BA2E",
"^	c #24CB2F",
"/	c #23CB30",
"(	c #23CB2F",
"_	c #27B62E",
":	c #26BA2E",
"<	c #2F9132",
"[	c #2F9431",
"}	c #23C72D",
"|	c #347836",
"1	c #26D434",
"2	c #347A36",
"3	c #22C92D",
"4	c #347B35",
"5	c #2D9231",
"6	c #25B82D",
"7	c #2D9230",
"....................",
"....................",
".......+@##@$.......",
".....%&*====*&-.....",
"....%;========>,....",
"....&=========='....",
"...)*==========!~...",
"...{============]...",
"...^============/...",
"...(============/...",
"..._============:...",
"...<*==========![...",
"....}==========&....",
"....|;========12....",
".....|3*====*34.....",
".......56((67.......",
"....................",
"...................."};
