/* XPM */
static char * C:\Users\crime\Shared\macos\metacity_1\maximize_focused_normal_xpm[] = {
"20 18 94 2",
"  	c None",
". 	c #454544",
"+ 	c #454545",
"@ 	c #454445",
"# 	c #444544",
"$ 	c #444444",
"% 	c #454444",
"& 	c #444445",
"* 	c #444344",
"= 	c #444343",
"- 	c #434444",
"; 	c #434443",
"> 	c #444443",
", 	c #425641",
"' 	c #329335",
") 	c #28B82F",
"! 	c #24CB30",
"~ 	c #339334",
"{ 	c #405642",
"] 	c #434343",
"^ 	c #434344",
"/ 	c #397A3B",
"( 	c #23C92E",
"_ 	c #33E442",
": 	c #39EA49",
"< 	c #397D3A",
"[ 	c #434242",
"} 	c #424242",
"| 	c #424342",
"1 	c #424243",
"2 	c #27D333",
"3 	c #27D434",
"4 	c #387C39",
"5 	c #405540",
"6 	c #23CA2F",
"7 	c #405840",
"8 	c #414141",
"9 	c #414241",
"0 	c #424141",
"a 	c #414142",
"b 	c #319234",
"c 	c #33E543",
"d 	c #309533",
"e 	c #414041",
"f 	c #27B62F",
"g 	c #27BA2E",
"h 	c #414140",
"i 	c #404040",
"j 	c #404041",
"k 	c #24CB2F",
"l 	c #23CB30",
"m 	c #414040",
"n 	c #3F3F3F",
"o 	c #3F403F",
"p 	c #3F4040",
"q 	c #23CB2F",
"r 	c #3E3F3F",
"s 	c #3F3F40",
"t 	c #27B62E",
"u 	c #26BA2E",
"v 	c #403F3F",
"w 	c #3E3E3E",
"x 	c #3F3F3E",
"y 	c #2F9132",
"z 	c #2F9431",
"A 	c #3F3E3F",
"B 	c #3E3D3D",
"C 	c #3C523C",
"D 	c #23C72D",
"E 	c #3C543C",
"F 	c #3C3D3D",
"G 	c #3D3D3E",
"H 	c #3D3E3D",
"I 	c #3D3E3E",
"J 	c #347836",
"K 	c #26D434",
"L 	c #347A36",
"M 	c #3D3D3D",
"N 	c #3C3C3C",
"O 	c #22C92D",
"P 	c #347B35",
"Q 	c #3C3B3B",
"R 	c #3C3C3D",
"S 	c #3D3D3C",
"T 	c #3A513B",
"U 	c #2D9231",
"V 	c #25B82D",
"W 	c #2D9230",
"X 	c #3B3B3A",
"Y 	c #3A3A3A",
"Z 	c #3B3B3B",
"` 	c #3C3B3C",
" .	c #3B3C3B",
"..	c #39393A",
". + @ . . . + @ . + @ . + @ . + @ . . + ",
"# $ % % & # $ % # $ % # $ % # $ % % & $ ",
"* = - ; > * , ' ) ! ! ) ~ { * = - ; > = ",
"] ] ^ ] ^ / ( _ : : : : _ ( < ] ^ ] ^ [ ",
"} | | 1 / 2 : : : : : : : : 3 4 | 1 1 } ",
"} } } 5 ( : : : : : : : : : : 6 7 } } 8 ",
"9 0 a b _ : : : : : : : : : : c d 9 0 e ",
"8 8 8 f : : : : : : : : : : : : g 8 h i ",
"j j i k : : : : : : : : : : : : l m m n ",
"i o p q : : : : : : : : : : : : l i n r ",
"s n n t : : : : : : : : : : : : u v v w ",
"x n n y _ : : : : : : : : : : c z A x B ",
"w w w C D : : : : : : : : : : ( E w w F ",
"G G H I J 2 : : : : : : : : K L H I M N ",
"M M M M M J O _ : : : : _ O P M M M M Q ",
"F R R R S F T U V q q V W T F R R R S X ",
"N Q N N N N Q N N Q N N Q N N Q N N N Y ",
"Z `  .` Z Z `  .Z `  .Z `  .Z `  .` Z .."};
