/* XPM */
static char * maximize_pressed_xpm[] = {
"20 18 53 1",
" 	c None",
".	c #343236",
"+	c #415641",
"@	c #329235",
"#	c #24B029",
"$	c #19BC22",
"%	c #23B029",
"&	c #329334",
"*	c #405642",
"=	c #3A7B3B",
"-	c #1ABB22",
";	c #13C21E",
">	c #19BB22",
",	c #397D3A",
"'	c #397B3B",
")	c #15BF1F",
"!	c #0E9D14",
"~	c #15C01F",
"{	c #387D39",
"]	c #405640",
"^	c #12C11D",
"/	c #12C11E",
"(	c #066D07",
"_	c #13C11D",
":	c #12C21D",
"<	c #19BC21",
"[	c #405840",
"}	c #319234",
"|	c #13C11E",
"1	c #13C21D",
"2	c #309433",
"3	c #23AF28",
"4	c #22B128",
"5	c #18BE21",
"6	c #22AF28",
"7	c #12C21E",
"8	c #21B127",
"9	c #2F9132",
"0	c #2F9331",
"a	c #3A4D3B",
"b	c #3C543C",
"c	c #347A36",
"d	c #0D9D14",
"e	c #14C01F",
"f	c #347C36",
"g	c #18BB21",
"h	c #347A35",
"i	c #3A513B",
"j	c #2D9130",
"k	c #20B027",
"l	c #18BC21",
"m	c #17BB21",
"n	c #2D9330",
"....................",
"....................",
"......+@#$$%&*......",
".....=-;;;;;;>,.....",
"....');;;!!;;;~{....",
"...]-;^/^((_::;<[...",
"...};;__|((:1;;;2...",
"...3;;:^|((;;;;;4...",
"...>;!((((((((!;5...",
"...>;!((((((((!;5...",
"...6;;/^:((:;7;;8...",
"...9;;:/_((1/;;;0...",
"...a-;:|7((;;;;<b...",
"....c~;;;dd;;;ef....",
".....cg;;;;;;gh.....",
"......ijklmkni......",
"....................",
"...................."};
