/* XPM */
static char * title_1_active_xpm[] = {
"4 25 57 1",
" 	c None",
".	c #474747",
"+	c #474647",
"@	c #464746",
"#	c #464646",
"$	c #454646",
"%	c #454645",
"&	c #454545",
"*	c #454444",
"=	c #444444",
"-	c #434444",
";	c #444343",
">	c #434343",
",	c #434344",
"'	c #444344",
")	c #434242",
"!	c #424343",
"~	c #424242",
"{	c #414141",
"]	c #414142",
"^	c #414041",
"/	c #404141",
"(	c #404140",
"_	c #404040",
":	c #403F40",
"<	c #3F3F3F",
"[	c #3F403F",
"}	c #3E3F3F",
"|	c #3F3E3F",
"1	c #3E3F3E",
"2	c #3E3E3E",
"3	c #3E3D3D",
"4	c #3D3E3E",
"5	c #3D3E3D",
"6	c #3D3D3D",
"7	c #3C3D3D",
"8	c #3D3D3C",
"9	c #3C3C3C",
"0	c #3C3C3D",
"a	c #3C3B3B",
"b	c #3C3C3B",
"c	c #3B3B3A",
"d	c #3B3A3B",
"e	c #3A3A3B",
"f	c #3A3A3A",
"g	c #3A3B3A",
"h	c #39393A",
"i	c #393A39",
"j	c #393938",
"k	c #393939",
"l	c #383839",
"m	c #383939",
"n	c #393838",
"o	c #383938",
"p	c #383838",
"q	c #373837",
"r	c #373738",
"....",
"+@@#",
"$%#$",
"&&&&",
"&&*=",
"=-==",
";>,'",
")!!)",
"~~~~",
"{{{]",
"^/({",
"__:_",
"<_[<",
"}|11",
"2222",
"3456",
"7786",
"9909",
"aabb",
"cdde",
"ffgd",
"hffi",
"jklk",
"mnop",
"qppr"};
