/* XPM */
static char * top_left_active_xpm[] = {
"8 29 88 1",
" 	c None",
".	c #474647",
"+	c #474747",
"@	c #464746",
"#	c #474746",
"$	c #464647",
"%	c #464646",
"&	c #454546",
"*	c #464645",
"=	c #454646",
"-	c #454545",
";	c #454544",
">	c #454445",
",	c #444444",
"'	c #444544",
")	c #454444",
"!	c #444445",
"~	c #444344",
"{	c #444343",
"]	c #434444",
"^	c #434443",
"/	c #444443",
"(	c #434343",
"_	c #434344",
":	c #424243",
"<	c #424242",
"[	c #424342",
"}	c #434243",
"|	c #414141",
"1	c #414241",
"2	c #424141",
"3	c #414142",
"4	c #424241",
"5	c #404141",
"6	c #414140",
"7	c #404041",
"8	c #404040",
"9	c #414040",
"0	c #403F40",
"a	c #3F403F",
"b	c #3F4040",
"c	c #3F3F3F",
"d	c #3F3F40",
"e	c #403F3F",
"f	c #3F3F3E",
"g	c #3F3E3F",
"h	c #3E3F3E",
"i	c #3E3E3E",
"j	c #3E3D3D",
"k	c #3D3D3E",
"l	c #3D3E3D",
"m	c #3D3E3E",
"n	c #3D3D3D",
"o	c #3E3D3E",
"p	c #3E3E3D",
"q	c #3D3C3D",
"r	c #3C3D3D",
"s	c #3C3C3D",
"t	c #3D3D3C",
"u	c #3C3D3C",
"v	c #3B3C3C",
"w	c #3C3C3C",
"x	c #3C3B3B",
"y	c #3B3B3B",
"z	c #3C3B3C",
"A	c #3B3C3B",
"B	c #3B3A3B",
"C	c #3A3A3B",
"D	c #3A3B3B",
"E	c #3A3A3A",
"F	c #3B3A3A",
"G	c #3A3A39",
"H	c #393939",
"I	c #3A393A",
"J	c #3A3939",
"K	c #393A3A",
"L	c #39393A",
"M	c #393A39",
"N	c #383939",
"O	c #383839",
"P	c #383838",
"Q	c #393838",
"R	c #393839",
"S	c #373838",
"T	c #383738",
"U	c #373737",
"V	c #373738",
"W	c #383837",
"    .+++",
"  @#@$%$",
" %&%%*=%",
" -%-=&-&",
"-;->;;--",
",',))!,,",
",~{]^/],",
"(((_(_(^",
":<[[::[}",
"<<<<<<<<",
"|12312|4",
"5||||666",
"77789958",
"08ab8ca8",
"cdcceebc",
"cfccgfhc",
"hiiiiiih",
"jkklmnop",
"nnnnnnnn",
"qrssstur",
"vwxwwwwx",
"xyzAzyyv",
"yyyyBCyD",
"EEFEEECE",
"GHIJKELG",
"HHHHHMHH",
"HNOPQOOR",
"PPSPPPTP",
"UVPWSUVU"};
