/* XPM */
static char * top_right_active_xpm[] = {
"8 29 88 1",
" 	c None",
".	c #474747",
"+	c #474647",
"@	c #464647",
"#	c #464646",
"$	c #464746",
"%	c #474746",
"&	c #454646",
"*	c #464645",
"=	c #454546",
"-	c #454545",
";	c #454544",
">	c #454445",
",	c #444444",
"'	c #444445",
")	c #454444",
"!	c #444544",
"~	c #434444",
"{	c #444443",
"]	c #434443",
"^	c #444343",
"/	c #444344",
"(	c #434343",
"_	c #434344",
":	c #434243",
"<	c #424342",
"[	c #424243",
"}	c #424242",
"|	c #424241",
"1	c #414141",
"2	c #424141",
"3	c #414241",
"4	c #414142",
"5	c #414140",
"6	c #404141",
"7	c #404040",
"8	c #414040",
"9	c #404041",
"0	c #3F403F",
"a	c #3F3F3F",
"b	c #3F4040",
"c	c #403F40",
"d	c #403F3F",
"e	c #3F3F40",
"f	c #3E3F3E",
"g	c #3F3F3E",
"h	c #3F3E3F",
"i	c #3E3E3E",
"j	c #3E3E3D",
"k	c #3E3D3E",
"l	c #3D3D3D",
"m	c #3D3E3E",
"n	c #3D3E3D",
"o	c #3D3D3E",
"p	c #3E3D3D",
"q	c #3C3D3D",
"r	c #3C3D3C",
"s	c #3D3D3C",
"t	c #3C3C3D",
"u	c #3D3C3D",
"v	c #3C3B3B",
"w	c #3C3C3C",
"x	c #3B3C3C",
"y	c #3B3B3B",
"z	c #3C3B3C",
"A	c #3B3C3B",
"B	c #3A3B3B",
"C	c #3A3A3B",
"D	c #3B3A3B",
"E	c #3A3A3A",
"F	c #3B3A3A",
"G	c #3A3A39",
"H	c #39393A",
"I	c #393A3A",
"J	c #3A3939",
"K	c #3A393A",
"L	c #393939",
"M	c #393A39",
"N	c #393839",
"O	c #383839",
"P	c #393838",
"Q	c #383838",
"R	c #383939",
"S	c #383738",
"T	c #373838",
"U	c #373737",
"V	c #373738",
"W	c #383837",
"...+    ",
"@#@$%$  ",
"#&*##=# ",
"=-=&-#- ",
"--;;>-;-",
",,')),!,",
",~{]~^/,",
"](_(_(((",
":<[[<<}[",
"}}}}}}}}",
"|1234231",
"55511116",
"76887999",
"70a7b07c",
"abddaaea",
"afghaaga",
"fiiiiiif",
"jklmnoop",
"llllllll",
"qrstttqu",
"vwwwwvwx",
"xyyzAzyv",
"ByCDyyyy",
"ECEEEFEE",
"GHEIJKLG",
"LLMLLLLL",
"NOOPQORL",
"QSQQQTQQ",
"UVUTWQVU"};
