/* XPM */
static char * unfocused_xpm[] = {
"20 18 13 1",
" 	c None",
".	c #25262A",
"+	c #707070",
"@	c #808080",
"#	c #878787",
"$	c #7F7F7F",
"%	c #868686",
"&	c #8F8F8F",
"*	c #919191",
"=	c #8B8B8B",
"-	c #909090",
";	c #8A8A8A",
">	c #6F6F6F",
"....................",
"....................",
".......+@##$+.......",
"......%&****&%......",
".....=*******-;.....",
"....#**********%....",
"...+&**********&>...",
"...@************$...",
"...#************%...",
"...#************%...",
"...@************$...",
"...+&**********&>...",
"....%*********-%....",
".....=*******-;.....",
"......%&****&%......",
".......+@##$+.......",
"....................",
"...................."};
