/* XPM */
static char * C:\Users\crime\Shared\macos\metacity_1\unfocused_normal_xpm[] = {
"20 18 19 1",
" 	c None",
".	c #545454",
"+	c #595959",
"@	c #707070",
"#	c #808080",
"$	c #878787",
"%	c #7F7F7F",
"&	c #585858",
"*	c #676767",
"=	c #868686",
"-	c #8F8F8F",
";	c #919191",
">	c #666666",
",	c #8B8B8B",
"'	c #909090",
")	c #8A8A8A",
"!	c #656565",
"~	c #5A5A5A",
"{	c #6F6F6F",
"....................",
"....................",
"......+@#$$%@&......",
".....*=-;;;;-=>.....",
"....>,;;;;;;;')!....",
"...~$;;;;;;;;;;=+...",
"...@-;;;;;;;;;;-{...",
"...#;;;;;;;;;;;;%...",
"...$;;;;;;;;;;;;=...",
"...$;;;;;;;;;;;;=...",
"...#;;;;;;;;;;;;%...",
"...@-;;;;;;;;;;-{...",
"...~=;;;;;;;;;'=+...",
"....>,;;;;;;;')!....",
".....*=-;;;;-=>.....",
"......+@#$$%@&......",
"....................",
"...................."};
